<mxfile host="app.diagrams.net" modified="2024-04-08T00:05:47.204Z" agent="Mozilla/5.0 (Windows NT 10.0; Win64; x64) AppleWebKit/537.36 (KHTML, like Gecko) Chrome/123.0.0.0 Safari/537.36" etag="onnByBx4f0gX-aXDK7GD" version="24.2.2" type="google">
  <diagram name="PÃ¡gina-1" id="7wOyUkWuX9iwCCWgkeHW">
    <mxGraphModel grid="1" page="1" gridSize="10" guides="1" tooltips="1" connect="1" arrows="1" fold="1" pageScale="1" pageWidth="827" pageHeight="1169" math="0" shadow="0">
      <root>
        <mxCell id="0" />
        <mxCell id="1" parent="0" />
        <mxCell id="RPNsHa_zoQmZ6FDsc1Vi-7" value="" style="ellipse;html=1;shape=startState;fillColor=#000000;strokeColor=#ff0000;" vertex="1" parent="1">
          <mxGeometry x="180" y="20" width="30" height="30" as="geometry" />
        </mxCell>
        <mxCell id="RPNsHa_zoQmZ6FDsc1Vi-8" value="" style="edgeStyle=orthogonalEdgeStyle;html=1;verticalAlign=bottom;endArrow=open;endSize=8;strokeColor=#ff0000;rounded=0;" edge="1" parent="1" source="RPNsHa_zoQmZ6FDsc1Vi-7">
          <mxGeometry relative="1" as="geometry">
            <mxPoint x="195" y="100" as="targetPoint" />
          </mxGeometry>
        </mxCell>
        <mxCell id="RPNsHa_zoQmZ6FDsc1Vi-9" value="Idle" style="swimlane;fontStyle=1;align=center;verticalAlign=top;childLayout=stackLayout;horizontal=1;startSize=26;horizontalStack=0;resizeParent=1;resizeParentMax=0;resizeLast=0;collapsible=1;marginBottom=0;whiteSpace=wrap;html=1;" vertex="1" parent="1">
          <mxGeometry x="115" y="100" width="160" height="86" as="geometry" />
        </mxCell>
        <mxCell id="RPNsHa_zoQmZ6FDsc1Vi-10" value="Api" style="text;strokeColor=none;fillColor=none;align=center;verticalAlign=top;spacingLeft=4;spacingRight=4;overflow=hidden;rotatable=0;points=[[0,0.5],[1,0.5]];portConstraint=eastwest;whiteSpace=wrap;html=1;" vertex="1" parent="RPNsHa_zoQmZ6FDsc1Vi-9">
          <mxGeometry y="26" width="160" height="26" as="geometry" />
        </mxCell>
        <mxCell id="RPNsHa_zoQmZ6FDsc1Vi-11" value="" style="line;strokeWidth=1;fillColor=none;align=left;verticalAlign=middle;spacingTop=-1;spacingLeft=3;spacingRight=3;rotatable=0;labelPosition=right;points=[];portConstraint=eastwest;strokeColor=inherit;" vertex="1" parent="RPNsHa_zoQmZ6FDsc1Vi-9">
          <mxGeometry y="52" width="160" height="8" as="geometry" />
        </mxCell>
        <mxCell id="RPNsHa_zoQmZ6FDsc1Vi-12" value="Solicitar ubicacion" style="text;strokeColor=none;fillColor=none;align=center;verticalAlign=top;spacingLeft=4;spacingRight=4;overflow=hidden;rotatable=0;points=[[0,0.5],[1,0.5]];portConstraint=eastwest;whiteSpace=wrap;html=1;" vertex="1" parent="RPNsHa_zoQmZ6FDsc1Vi-9">
          <mxGeometry y="60" width="160" height="26" as="geometry" />
        </mxCell>
        <mxCell id="RPNsHa_zoQmZ6FDsc1Vi-13" value="" style="edgeStyle=orthogonalEdgeStyle;html=1;verticalAlign=bottom;endArrow=open;endSize=8;strokeColor=#ff0000;rounded=0;entryX=0.5;entryY=0;entryDx=0;entryDy=0;" edge="1" parent="1" target="RPNsHa_zoQmZ6FDsc1Vi-14">
          <mxGeometry relative="1" as="geometry">
            <mxPoint x="195" y="236" as="targetPoint" />
            <mxPoint x="195" y="186" as="sourcePoint" />
          </mxGeometry>
        </mxCell>
        <mxCell id="RPNsHa_zoQmZ6FDsc1Vi-14" value="Ubicacion obtenida" style="swimlane;fontStyle=1;align=center;verticalAlign=top;childLayout=stackLayout;horizontal=1;startSize=26;horizontalStack=0;resizeParent=1;resizeParentMax=0;resizeLast=0;collapsible=1;marginBottom=0;whiteSpace=wrap;html=1;" vertex="1" parent="1">
          <mxGeometry x="115" y="240" width="160" height="86" as="geometry" />
        </mxCell>
        <mxCell id="RPNsHa_zoQmZ6FDsc1Vi-15" value="Api" style="text;strokeColor=none;fillColor=none;align=center;verticalAlign=top;spacingLeft=4;spacingRight=4;overflow=hidden;rotatable=0;points=[[0,0.5],[1,0.5]];portConstraint=eastwest;whiteSpace=wrap;html=1;" vertex="1" parent="RPNsHa_zoQmZ6FDsc1Vi-14">
          <mxGeometry y="26" width="160" height="26" as="geometry" />
        </mxCell>
        <mxCell id="RPNsHa_zoQmZ6FDsc1Vi-16" value="" style="line;strokeWidth=1;fillColor=none;align=left;verticalAlign=middle;spacingTop=-1;spacingLeft=3;spacingRight=3;rotatable=0;labelPosition=right;points=[];portConstraint=eastwest;strokeColor=inherit;" vertex="1" parent="RPNsHa_zoQmZ6FDsc1Vi-14">
          <mxGeometry y="52" width="160" height="8" as="geometry" />
        </mxCell>
        <mxCell id="RPNsHa_zoQmZ6FDsc1Vi-17" value="Obtener datos del clima" style="text;strokeColor=none;fillColor=none;align=center;verticalAlign=top;spacingLeft=4;spacingRight=4;overflow=hidden;rotatable=0;points=[[0,0.5],[1,0.5]];portConstraint=eastwest;whiteSpace=wrap;html=1;" vertex="1" parent="RPNsHa_zoQmZ6FDsc1Vi-14">
          <mxGeometry y="60" width="160" height="26" as="geometry" />
        </mxCell>
        <mxCell id="RPNsHa_zoQmZ6FDsc1Vi-18" value="" style="edgeStyle=orthogonalEdgeStyle;html=1;verticalAlign=bottom;endArrow=open;endSize=8;strokeColor=#ff0000;rounded=0;" edge="1" parent="1">
          <mxGeometry relative="1" as="geometry">
            <mxPoint x="195" y="376" as="targetPoint" />
            <mxPoint x="195" y="326" as="sourcePoint" />
          </mxGeometry>
        </mxCell>
        <mxCell id="RPNsHa_zoQmZ6FDsc1Vi-19" value="solicitar_ubicacion()" style="text;html=1;align=center;verticalAlign=middle;resizable=0;points=[];autosize=1;strokeColor=none;fillColor=none;" vertex="1" parent="1">
          <mxGeometry x="200" y="200" width="130" height="30" as="geometry" />
        </mxCell>
        <mxCell id="RPNsHa_zoQmZ6FDsc1Vi-20" value="obtener_clima(ubicacion)" style="text;html=1;align=center;verticalAlign=middle;resizable=0;points=[];autosize=1;strokeColor=none;fillColor=none;" vertex="1" parent="1">
          <mxGeometry x="200" y="340" width="160" height="30" as="geometry" />
        </mxCell>
        <mxCell id="RPNsHa_zoQmZ6FDsc1Vi-21" value="Enviando datos del clima" style="swimlane;fontStyle=1;align=center;verticalAlign=top;childLayout=stackLayout;horizontal=1;startSize=26;horizontalStack=0;resizeParent=1;resizeParentMax=0;resizeLast=0;collapsible=1;marginBottom=0;whiteSpace=wrap;html=1;" vertex="1" parent="1">
          <mxGeometry x="115" y="380" width="160" height="60" as="geometry" />
        </mxCell>
        <mxCell id="RPNsHa_zoQmZ6FDsc1Vi-22" value="Api" style="text;strokeColor=none;fillColor=none;align=center;verticalAlign=top;spacingLeft=4;spacingRight=4;overflow=hidden;rotatable=0;points=[[0,0.5],[1,0.5]];portConstraint=eastwest;whiteSpace=wrap;html=1;" vertex="1" parent="RPNsHa_zoQmZ6FDsc1Vi-21">
          <mxGeometry y="26" width="160" height="26" as="geometry" />
        </mxCell>
        <mxCell id="RPNsHa_zoQmZ6FDsc1Vi-23" value="" style="line;strokeWidth=1;fillColor=none;align=left;verticalAlign=middle;spacingTop=-1;spacingLeft=3;spacingRight=3;rotatable=0;labelPosition=right;points=[];portConstraint=eastwest;strokeColor=inherit;" vertex="1" parent="RPNsHa_zoQmZ6FDsc1Vi-21">
          <mxGeometry y="52" width="160" height="8" as="geometry" />
        </mxCell>
        <mxCell id="RPNsHa_zoQmZ6FDsc1Vi-25" value="" style="ellipse;html=1;shape=endState;fillColor=#000000;strokeColor=#ff0000;" vertex="1" parent="1">
          <mxGeometry x="180" y="490" width="30" height="30" as="geometry" />
        </mxCell>
        <mxCell id="RPNsHa_zoQmZ6FDsc1Vi-26" value="" style="edgeStyle=orthogonalEdgeStyle;html=1;verticalAlign=bottom;endArrow=open;endSize=8;strokeColor=#ff0000;rounded=0;" edge="1" parent="1">
          <mxGeometry relative="1" as="geometry">
            <mxPoint x="194.5" y="490" as="targetPoint" />
            <mxPoint x="194.5" y="440" as="sourcePoint" />
          </mxGeometry>
        </mxCell>
        <mxCell id="RPNsHa_zoQmZ6FDsc1Vi-27" value="enviar_datos_clima()" style="text;html=1;align=center;verticalAlign=middle;resizable=0;points=[];autosize=1;strokeColor=none;fillColor=none;" vertex="1" parent="1">
          <mxGeometry x="210" y="448" width="130" height="30" as="geometry" />
        </mxCell>
      </root>
    </mxGraphModel>
  </diagram>
</mxfile>
